Title                            : Harry Potter and the Half-Blood Prince
Year                             : 2009
Genre                            : Action | Adventure | Family | Fantasy | Mystery | Romance
iMDB URL                         : http://www.imdb.com/title/tt0417741/
Awards                           : 1 win

Complete name                    : Harry.Potter.and.the.Half-Blood.Prince.2009.DVDRIP.H264-ZEKTORM.mp4
Format                           : MPEG-4
Format profile                   : Base Media
Codec ID                         : isom
File size                        : 701 MiB
Duration                         : 2h 33mn
Overall bit rate                 : 639 Kbps
Subtitles                        : English (Format: srt/VobSub)

Video
Format                           : AVC
Format/Info                      : Advanced Video Codec
Format profile                   : High@L4.1
Format settings, CABAC           : Yes
Codec ID                         : avc1
Codec ID/Info                    : Advanced Video Coding
Duration                         : 2h 33mn
Bit rate mode                    : Variable
Bit rate                         : 557 Kbps
Maximum bit rate                 : 4545 Kbps
Width                            : 720 pixels
Height                           : 368 pixels
Display aspect ratio             : 2.35
Frame rate mode                  : Constant
Frame rate                       : 23.976 fps
Resolution                       : 24 bits
Colorimetry                      : 4:2:0
Scan type                        : Progressive
Bits/(Pixel*Frame)               : 0.088
Stream size                      : 612 MiB (87%)
Title                            : Video
Writing library                  : x264

Audio
Format                           : AAC
Format/Info                      : Advanced Audio Codec
Format version                   : Version 4
Format profile                   : LC
Format settings, SBR             : Yes
Format settings, PS              : No
Codec ID                         : 40
Duration                         : 2h 33mn
Bit rate mode                    : Variable
Bit rate                         : 78.8 Kbps
Maximum bit rate                 : 106 Kbps
Channel(s)                       : 2 channels
Channel positions                : L R
Sampling rate                    : 48.0 KHz
Resolution                       : 16 bits
Stream size                      : 86.5 MiB (12%)
Title                            : English
Language                         : English